<svg xmlns="http://www.w3.org/2000/svg" width="512" height="512" viewBox="0 0 512 512" version="1.1"><path d="M 151.500 1.108 C 101.482 3.812, 67.822 17.346, 41.223 45.446 C 19.066 68.854, 7.068 97.745, 2.936 137.644 C 0.269 163.405, 0.274 351.676, 2.943 376 C 7.276 415.487, 19.609 444.246, 42.245 467.645 C 66.477 492.696, 96.529 505.755, 140.276 510.245 C 158.180 512.083, 356.509 512.027, 374 510.180 C 417.045 505.633, 445.750 493.335, 470.031 469.038 C 494.278 444.775, 507.420 413.633, 510.980 372 C 512.409 355.285, 512.410 152.533, 510.981 137.644 C 507.290 99.188, 495.126 69.328, 473.883 46.582 C 455.744 27.159, 434.657 14.808, 407.409 7.647 C 393.341 3.950, 380.581 2.225, 358.500 1.034 C 336.446 -0.154, 173.774 -0.097, 151.500 1.108 M 161.500 48.062 C 133.217 49.314, 116.467 52.490, 101.376 59.462 C 82.632 68.122, 66.566 84.499, 59.235 102.419 C 49.239 126.852, 48.020 143.596, 48.014 256.500 C 48.010 337.212, 48.833 366.196, 51.607 383 C 57.788 420.440, 78.302 445.967, 111.111 457.042 C 132.307 464.196, 152.016 465.314, 257 465.314 C 341.689 465.314, 367.978 464.529, 385.198 461.487 C 426.612 454.171, 452.737 429.320, 461.398 389 C 464.962 372.408, 465.236 364.880, 465.703 270.500 C 466.345 140.835, 465.276 125.291, 454.003 100.363 C 447.832 86.716, 435.239 72.409, 422.301 64.344 C 405.780 54.046, 386.184 49.635, 349.829 48.033 C 323.669 46.880, 187.741 46.901, 161.500 48.062 M 386.734 89.088 C 380.498 90.557, 375.522 93.625, 370.729 98.956 C 365.241 105.060, 362.997 111.158, 363.010 119.928 C 363.035 136.575, 376.453 149.997, 393.072 149.999 C 402.046 150, 408.043 147.728, 414.404 141.914 C 432.445 125.425, 425.635 96.612, 402.040 89.605 C 396.139 87.852, 392.501 87.729, 386.734 89.088 M 240.500 125.067 C 191.173 131.791, 150.107 164.602, 133.021 210.943 C 127.494 225.934, 125.537 237.721, 125.541 256 C 125.545 274.173, 126.868 282.707, 132.130 298.498 C 144.773 336.442, 177.041 368.605, 214.846 380.947 C 230.802 386.156, 239.068 387.430, 257 387.447 C 276.301 387.465, 287.979 385.372, 304.500 378.933 C 364.604 355.506, 399.114 292.250, 386.024 229.500 C 383.882 219.231, 379.082 205.098, 374.962 196.929 C 362.974 173.161, 339.831 150.030, 316.005 138.002 C 307.868 133.895, 291.371 128.343, 281.781 126.483 C 271.647 124.519, 249.977 123.776, 240.500 125.067 M 241.734 172.584 C 215.916 177.251, 192.776 194.719, 180.651 218.693 C 179.206 221.548, 176.818 227.848, 175.343 232.693 C 172.963 240.511, 172.662 243.129, 172.662 256 C 172.662 268.871, 172.963 271.489, 175.343 279.307 C 184.187 308.357, 204.677 328.844, 233.693 337.648 C 241.359 339.974, 244.313 340.329, 256.500 340.390 C 271.867 340.466, 279.694 338.879, 292.426 333.106 C 321.701 319.832, 342 288.260, 342 256 C 342 240.852, 336.559 222.829, 328.094 209.934 C 309.267 181.255, 275.219 166.530, 241.734 172.584 M 0.300 256 C 0.300 259.025, 0.487 260.262, 0.716 258.750 C 0.945 257.238, 0.945 254.762, 0.716 253.250 C 0.487 251.738, 0.300 252.975, 0.300 256" stroke="none" fill="#040404" fill-rule="evenodd"/></svg>