<svg xmlns="http://www.w3.org/2000/svg" width="512" height="512" viewBox="0 0 512 512" version="1.1"><path d="M 239.469 16.008 C 180.303 20.871, 125.441 47.069, 84.951 89.797 C 16.314 162.225, -0.068 267.923, 43.433 357.655 L 50.883 373.022 34.084 434.261 C 24.844 467.942, 17.398 495.640, 17.536 495.810 C 17.674 495.981, 46.175 488.678, 80.872 479.581 L 143.956 463.041 147.228 464.969 C 158.260 471.469, 183.478 480.851, 202 485.347 C 221.687 490.124, 233.748 491.451, 257.500 491.451 C 281.845 491.451, 293.380 490.130, 314.909 484.875 C 366.849 472.199, 415.198 440.092, 447.997 396.495 C 512.902 310.224, 511.339 191.108, 444.179 105.500 C 436.477 95.683, 413.046 72.548, 403.500 65.335 C 383.729 50.397, 360.364 37.473, 338.899 29.600 C 309.875 18.955, 269.976 13.501, 239.469 16.008 M 241.334 57.067 C 202.207 60.079, 162.081 76.560, 131.500 102.181 C 66.331 156.779, 43.174 245.594, 73.521 324.549 C 78.546 337.622, 81.999 344.630, 89.555 357.090 L 95.149 366.317 85.268 402.512 L 75.386 438.707 92.443 434.224 C 101.824 431.758, 118.580 427.374, 129.677 424.483 L 149.854 419.225 155.677 422.764 C 165.951 429.008, 183.158 436.824, 195.675 440.934 C 267.559 464.536, 345.298 445.599, 398.328 391.568 C 466.330 322.282, 473.655 213.119, 415.512 135.494 C 408.169 125.691, 393.090 109.937, 382.914 101.437 C 352.297 75.864, 313.829 60.395, 272.507 57.039 C 258.543 55.905, 256.405 55.907, 241.334 57.067 M 167.682 144.219 C 159.260 146.451, 145.117 163.336, 140.466 176.711 C 129.577 208.021, 139.781 238.100, 176.849 283.967 C 192.297 303.081, 214.948 323.986, 234 336.712 C 249.729 347.218, 268.580 355.904, 292.387 363.615 C 302.114 366.766, 305.122 367.279, 316.500 367.730 C 326.662 368.132, 330.919 367.881, 336 366.582 C 350.589 362.851, 367.076 351.840, 372.166 342.430 C 377.549 332.478, 380.326 313.544, 377 309.473 C 375.357 307.462, 332.636 286.312, 324.342 283.404 C 317.321 280.943, 315.850 281.785, 306.390 293.685 C 294.224 308.988, 290.177 313, 286.908 313 C 280.696 313, 257.551 301.144, 243.387 290.707 C 234.419 284.098, 219 268.553, 211.638 258.698 C 205.316 250.236, 198 238.246, 198 236.348 C 198 235.698, 200.730 231.641, 204.067 227.333 C 214.297 214.126, 218 208.015, 218 204.336 C 218 202.491, 216.047 196.373, 213.660 190.741 C 211.273 185.108, 206.536 173.742, 203.133 165.483 C 195.396 146.702, 194.064 144.930, 186.918 143.915 C 179.615 142.878, 172.304 142.994, 167.682 144.219" stroke="none" fill="#040404" fill-rule="evenodd"/></svg>